<?xml version="1.0" encoding="utf-8"?>
<!-- Generator: Adobe Illustrator 21.0.0, SVG Export Plug-In . SVG Version: 6.00 Build 0)  -->
<svg version="1.1" id="Layer_1" xmlns="http://www.w3.org/2000/svg" xmlns:xlink="http://www.w3.org/1999/xlink" x="0px" y="0px"
	 viewBox="0 0 512 512" style="enable-background:new 0 0 512 512;" xml:space="preserve">
<style type="text/css">
	.st0{fill:#FFFFFF;}
	.st1{fill:none;stroke:url(#SVGID_1_);stroke-width:15;stroke-miterlimit:10;}
	.st2{fill:url(#SVGID_2_);}
	.st3{fill:#1072BA;}
	.st4{fill:url(#SVGID_3_);}
</style>
<g>
	<path class="st0" d="M46.1,216.2c-7.9-7.1-12-17.7-12.4-31.8c-0.1-3-0.2-7.4-0.2-13.2c0-5.9,0.1-10.3,0.2-13.3
		c0.4-13.7,4.7-24.3,12.7-31.6c8.1-7.3,19-11,32.7-11c13.6,0,24.5,3.7,32.6,11c8.1,7.3,12.4,17.9,12.8,31.6c0.2,6,0.3,10.4,0.3,13.3
		c0,2.8-0.1,7.2-0.3,13.2c-0.4,14.1-4.6,24.6-12.5,31.8c-7.9,7.1-18.9,10.7-32.9,10.7C65,226.9,54,223.3,46.1,216.2z M95.6,202.7
		c4-4.1,6.2-10.5,6.5-19.1c0.2-6.2,0.3-10.4,0.3-12.6c0-2.4-0.1-6.6-0.3-12.6c-0.3-8.5-2.5-14.8-6.7-19c-4.1-4.2-9.6-6.3-16.3-6.3
		c-6.8,0-12.3,2.1-16.4,6.3c-4.1,4.2-6.3,10.5-6.5,19c-0.1,3-0.2,7.2-0.2,12.6c0,5.3,0.1,9.5,0.2,12.6c0.2,8.5,2.3,14.8,6.4,19
		c4.1,4.2,9.6,6.3,16.5,6.3C86.1,208.9,91.5,206.8,95.6,202.7z"/>
	<path class="st0" d="M224.5,215.9c-7.8-7.3-12-17.6-12.5-31.1c-0.1-2.8-0.2-7.3-0.2-13.6c0-6.4,0.1-11.1,0.2-14
		c0.5-13.2,4.7-23.5,12.6-30.9c7.9-7.4,18.9-11.1,33-11.1c9.2,0,17.2,1.6,24,4.7c6.8,3.2,12.1,7.5,15.9,12.9
		c3.8,5.5,5.8,11.6,6,18.4v0.3c0,0.8-0.3,1.5-1,2.1c-0.7,0.6-1.4,0.9-2.2,0.9h-15c-1.2,0-2.2-0.3-2.8-0.9c-0.6-0.6-1.1-1.6-1.6-3
		c-1.6-6.4-4.2-10.9-8.1-13.6c-3.8-2.6-8.9-4-15.2-4c-14.8,0-22.5,8.3-23.1,24.8c-0.1,2.8-0.2,7.1-0.2,12.9c0,5.8,0.1,10.2,0.2,13.2
		c0.6,16.5,8.3,24.8,23.1,24.8c6.2,0,11.2-1.3,15.1-4c3.9-2.6,6.6-7.2,8.1-13.6c0.4-1.4,0.9-2.5,1.6-3c0.6-0.6,1.5-0.9,2.8-0.9h15
		c0.9,0,1.7,0.3,2.4,0.9c0.7,0.6,1,1.4,0.9,2.3c-0.2,6.8-2.2,13-6,18.4c-3.8,5.5-9.1,9.8-15.9,12.9c-6.8,3.2-14.8,4.7-24,4.7
		C243.3,226.9,232.3,223.2,224.5,215.9z"/>
	<path class="st0" d="M48,394.5c-7.8-7.1-11.6-17.9-11.6-32.4V299c0-1.1,0.3-2.1,1-2.8c0.7-0.7,1.6-1.1,2.7-1.1h14.3
		c1.1,0,2.1,0.4,2.8,1.1c0.7,0.7,1.1,1.7,1.1,2.8v63.1c0,8.2,1.9,14.3,5.8,18.4c3.9,4.1,9.4,6.2,16.5,6.2c7.1,0,12.6-2.1,16.5-6.2
		c3.9-4.1,5.8-10.3,5.8-18.4V299c0-1.1,0.4-2.1,1.1-2.8c0.7-0.7,1.7-1.1,2.8-1.1H121c1.1,0,2,0.4,2.7,1.1c0.7,0.7,1,1.7,1,2.8v63.1
		c0,14.5-3.9,25.3-11.5,32.4c-7.7,7.1-18.5,10.7-32.5,10.7C66.6,405.2,55.7,401.6,48,394.5z"/>
	<path class="st0" d="M219.7,402.5c-0.7-0.7-1.1-1.6-1.1-2.6V299c0-1.1,0.3-2.1,1-2.8c0.7-0.7,1.6-1.1,2.7-1.1h40.2
		c12.7,0,22.7,2.9,29.8,8.8c7.2,5.9,10.8,14.3,10.8,25.1c0,7.5-1.8,13.9-5.4,19c-3.6,5.1-8.7,8.8-15.2,11.1l22.5,39.5
		c0.3,0.6,0.5,1.2,0.5,1.7c0,0.9-0.3,1.7-1,2.3c-0.7,0.6-1.4,0.9-2.2,0.9H288c-1.7,0-2.9-0.4-3.9-1.2c-0.9-0.8-1.8-1.8-2.5-3
		l-19.8-36.7h-21.2v37.2c0,1-0.4,1.9-1.1,2.6c-0.7,0.7-1.7,1.1-2.8,1.1h-14.3C221.3,403.6,220.5,403.2,219.7,402.5z M262.1,345
		c6.2,0,10.9-1.4,14-4.1c3.1-2.7,4.7-6.7,4.7-12c0-5.3-1.5-9.3-4.7-12.2c-3.1-2.8-7.8-4.3-14-4.3h-21.5V345H262.1z"/>
	<path class="st0" d="M404.5,394.5c-7.8-7.1-11.6-17.9-11.6-32.4V299c0-1.1,0.3-2.1,1-2.8c0.7-0.7,1.6-1.1,2.7-1.1h14.3
		c1.1,0,2.1,0.4,2.8,1.1c0.7,0.7,1.1,1.7,1.1,2.8v63.1c0,8.2,1.9,14.3,5.8,18.4c3.9,4.1,9.4,6.2,16.5,6.2c7.1,0,12.6-2.1,16.5-6.2
		c3.9-4.1,5.8-10.3,5.8-18.4V299c0-1.1,0.4-2.1,1.1-2.8c0.7-0.7,1.7-1.1,2.8-1.1h14.3c1.1,0,2,0.4,2.7,1.1c0.7,0.7,1,1.7,1,2.8v63.1
		c0,14.5-3.9,25.3-11.5,32.4c-7.7,7.1-18.5,10.7-32.5,10.7C423.2,405.2,412.3,401.6,404.5,394.5z"/>
</g>
<linearGradient id="SVGID_1_" gradientUnits="userSpaceOnUse" x1="25.177" y1="259" x2="496.0592" y2="259">
	<stop  offset="0" style="stop-color:#214596"/>
	<stop  offset="0.12" style="stop-color:#314696"/>
	<stop  offset="0.3334" style="stop-color:#514697"/>
	<stop  offset="0.6152" style="stop-color:#784798"/>
	<stop  offset="0.9513" style="stop-color:#A7499B"/>
	<stop  offset="1" style="stop-color:#AE499B"/>
</linearGradient>
<line class="st1" x1="25.2" y1="259" x2="496.1" y2="259"/>
<g>
	<linearGradient id="SVGID_2_" gradientUnits="userSpaceOnUse" x1="382.6957" y1="165.409" x2="460.9698" y2="165.409">
		<stop  offset="0" style="stop-color:#214596"/>
		<stop  offset="0.12" style="stop-color:#314696"/>
		<stop  offset="0.3334" style="stop-color:#514697"/>
		<stop  offset="0.6152" style="stop-color:#784798"/>
		<stop  offset="0.9513" style="stop-color:#A7499B"/>
		<stop  offset="1" style="stop-color:#AE499B"/>
	</linearGradient>
	<path class="st2" d="M394.2,171.3l10.6-14.2l17.1,6.1l17.1-6.1l10.6,14.2l-27.7-7.7L394.2,171.3z M440.6,151.7l-18.7,6.7l-18.7-6.7
		l-20.4,27.5l39.1-10.8l39.1,10.8L440.6,151.7z M440.6,151.7"/>
	<path class="st3" d="M421.8,121l10.3,23.9l-10.3,3.4l-10.3-3.4L421.8,121z M438.7,147.4l-1.2-1.7l-15.7-36.2l-15.7,36.2l-1.2,1.7
		l16.9,5.6L438.7,147.4z M438.7,147.4"/>
	<path class="st3" d="M414.4,208c0,1-0.7,1.8-1.6,1.8c-0.9,0-1.6-0.8-1.6-1.8v-28c0-1,0.7-1.8,1.6-1.8c0.9,0,1.6,0.8,1.6,1.8V208z
		 M414.4,208"/>
	<path class="st3" d="M423.4,220.7c0,1-0.7,1.8-1.6,1.8c-0.9,0-1.6-0.8-1.6-1.8v-28c0-1,0.7-1.8,1.6-1.8c0.9,0,1.6,0.8,1.6,1.8
		V220.7z M423.4,220.7"/>
	<path class="st3" d="M423.4,185.7c0,1-0.7,1.8-1.6,1.8c-0.9,0-1.6-0.8-1.6-1.8v-9.9c0-1,0.7-1.8,1.6-1.8c0.9,0,1.6,0.8,1.6,1.8
		V185.7z M423.4,185.7"/>
	<path class="st3" d="M432.4,216.2c0,1-0.7,1.8-1.6,1.8c-0.9,0-1.6-0.8-1.6-1.8v-28c0-1,0.7-1.8,1.6-1.8c0.9,0,1.6,0.8,1.6,1.8
		V216.2z M432.4,216.2"/>
	<path class="st3" d="M401.9,221.6c-0.2-0.4-0.5-0.8-0.8-1.2c-2.2-3.1-5.8-5.1-9.9-5.1c-0.1,0-0.2,0-0.3,0
		c-1.7-4.7-6.2-8.1-11.5-8.1c-2.7,0-5.2,0.9-7.2,2.4c-3,2.2-5,5.8-5,9.8c0,1.1,0.2,2.1,0.4,3.1c-2.1,0.9-4,2.3-5.3,4.2
		c-3.9-1.1-6.8-4.8-6.8-9.1c0-4.6,3.3-8.4,7.6-9.3c0.6-0.1,1.2-0.2,1.9-0.2c0.3,0,0.7,0,1,0.1c0.3-0.9,0.8-1.8,1.3-2.5
		c1.7-2.2,4.3-3.7,7.2-3.8c0.1,0,0.2,0,0.4,0c0.8,0,1.6,0.1,2.3,0.3c0.1-0.9,0.3-1.8,0.7-2.6c1.4-3.4,4.8-5.8,8.7-5.8
		c2.9,0,5.5,1.3,7.2,3.4c1.4,1.7,2.3,3.8,2.3,6.1c0,0.8-0.1,1.6-0.3,2.4c-0.2,0.9-0.6,1.8-1.1,2.6c1,0.1,1.9,0.3,2.7,0.7
		c3.5,1.4,5.9,4.8,5.9,8.8c0,1.5-0.4,2.9-1,4.2C402.3,221.6,402.1,221.6,401.9,221.6 M398.5,206.2c0.3-1,0.4-2.1,0.4-3.1
		c0-4-2-7.6-5-9.8c-2-1.5-4.5-2.4-7.2-2.4c-5.3,0-9.8,3.4-11.5,8.1c-0.1,0-0.2,0-0.3,0c-4.1,0-7.7,2-9.9,5.1
		c-0.3,0.4-0.5,0.8-0.8,1.2c-6.4,0.4-11.4,5.7-11.4,12.1c0,5.3,3.4,9.8,8.2,11.5c0.9,0.3,1.8,0.5,2.7,0.6c0.3-0.7,0.8-1.4,1.3-2
		c1-1.2,2.2-2.1,3.7-2.7c0.9-0.3,1.8-0.6,2.7-0.7c-0.5-0.8-0.9-1.7-1.1-2.6c-0.2-0.8-0.3-1.6-0.3-2.4c0-2.3,0.9-4.5,2.3-6.1
		c1.7-2,4.3-3.4,7.2-3.4c3.9,0,7.3,2.4,8.7,5.8c0.3,0.8,0.6,1.7,0.7,2.6c0.7-0.2,1.5-0.3,2.3-0.3c0.1,0,0.2,0,0.4,0
		c3,0.1,5.6,1.6,7.2,3.8c0.6,0.8,1,1.6,1.3,2.5c0.1,0,0.2,0,0.3,0c0.2,0,0.4,0,0.6,0c0.6,0,1.3,0.1,1.9,0.2c0.3,0.1,0.5,0.1,0.8,0.2
		c0.5-0.7,1-1.5,1.4-2.4c0.6-1.5,1-3.1,1-4.8C406.1,212.4,402.9,208,398.5,206.2"/>
	<path class="st3" d="M441.5,221.6c-0.6-1.3-1-2.7-1-4.2c0-4,2.5-7.4,5.9-8.8c0.9-0.4,1.8-0.6,2.7-0.7c-0.5-0.8-0.9-1.7-1.1-2.6
		c-0.2-0.8-0.3-1.6-0.3-2.4c0-2.3,0.9-4.5,2.3-6.1c1.7-2,4.3-3.4,7.2-3.4c3.9,0,7.3,2.4,8.7,5.8c0.3,0.8,0.6,1.7,0.7,2.6
		c0.7-0.2,1.5-0.3,2.3-0.3c0.1,0,0.2,0,0.4,0c3,0.1,5.6,1.6,7.2,3.8c0.6,0.8,1,1.6,1.3,2.5c0.3,0,0.7-0.1,1-0.1
		c0.6,0,1.3,0.1,1.9,0.2c4.3,0.9,7.6,4.7,7.6,9.3c0,4.3-2.9,8-6.8,9.1c-1.3-1.8-3.2-3.3-5.3-4.1c0.3-1,0.4-2.1,0.4-3.1
		c0-4-2-7.6-5-9.8c-2-1.5-4.5-2.4-7.2-2.4c-5.3,0-9.8,3.4-11.5,8.1c-0.1,0-0.2,0-0.3,0c-4.1,0-7.7,2-9.9,5.1
		c-0.3,0.4-0.5,0.8-0.8,1.2C441.8,221.6,441.6,221.6,441.5,221.6 M437.8,217.5c0,1.7,0.3,3.3,1,4.8c0.4,0.9,0.8,1.6,1.4,2.4
		c0.2-0.1,0.5-0.1,0.8-0.2c0.6-0.1,1.2-0.2,1.9-0.2c0.2,0,0.4,0,0.6,0c0.1,0,0.2,0,0.3,0c0.3-0.9,0.8-1.8,1.3-2.5
		c1.7-2.2,4.3-3.7,7.2-3.8c0.1,0,0.2,0,0.4,0c0.8,0,1.6,0.1,2.3,0.3c0.1-0.9,0.3-1.8,0.7-2.6c1.4-3.4,4.8-5.8,8.7-5.8
		c2.9,0,5.5,1.3,7.2,3.4c1.4,1.7,2.3,3.8,2.3,6.1c0,0.8-0.1,1.6-0.3,2.4c-0.2,0.9-0.6,1.8-1.1,2.6c1,0.1,1.9,0.3,2.7,0.7
		c1.4,0.6,2.7,1.5,3.7,2.7c0.5,0.6,1,1.3,1.3,2c0.9-0.1,1.8-0.3,2.7-0.6c4.8-1.7,8.2-6.2,8.2-11.5c0-6.5-5.1-11.7-11.4-12.1
		c-0.2-0.4-0.5-0.8-0.8-1.2c-2.2-3.1-5.8-5.1-9.9-5.1c-0.1,0-0.2,0-0.3,0c-1.7-4.7-6.2-8.1-11.5-8.1c-2.7,0-5.2,0.9-7.2,2.4
		c-3,2.2-5,5.8-5,9.8c0,1.1,0.2,2.1,0.4,3.1C441,208,437.8,212.4,437.8,217.5"/>
	<linearGradient id="SVGID_3_" gradientUnits="userSpaceOnUse" x1="418.5215" y1="139.8694" x2="425.1457" y2="139.8694">
		<stop  offset="0" style="stop-color:#214596"/>
		<stop  offset="0.12" style="stop-color:#314696"/>
		<stop  offset="0.3334" style="stop-color:#514697"/>
		<stop  offset="0.6152" style="stop-color:#784798"/>
		<stop  offset="0.9513" style="stop-color:#A7499B"/>
		<stop  offset="1" style="stop-color:#AE499B"/>
	</linearGradient>
	<path class="st4" d="M425.1,139.9c0,1.8-1.5,3.3-3.3,3.3c-1.8,0-3.3-1.5-3.3-3.3c0-1.8,1.5-3.3,3.3-3.3
		C423.7,136.6,425.1,138,425.1,139.9"/>
</g>
</svg>
